<?xml version="1.0" encoding="utf-8"?>
<!-- Generator: Adobe Illustrator 21.1.0, SVG Export Plug-In . SVG Version: 6.00 Build 0)  -->
<svg version="1.1" id="Layer_1" xmlns="http://www.w3.org/2000/svg" xmlns:xlink="http://www.w3.org/1999/xlink" x="0px" y="0px"
	 viewBox="0 0 124.9 90.1" style="enable-background:new 0 0 124.9 90.1;" xml:space="preserve">
<style type="text/css">
	.st0{fill:#025881;}
	.st1{fill:#349CD1;}
</style>
<path class="st0" d="M36.7,48.6c-20.2,5-24.8,16.3-31.5,27.1c0,0,22.7-27,44.9-11.4c1.1,0.8,3.5,3.2,3.7,3.8c0,0,2.2-1.9-2-5.8
	c-7.3-6.6,6.3,10.6,37.1-6.2c7.8-6,2.3-0.1-7.1-4.9c0,0,33.5,4.7,39-29c0,0-3.5,19.3-48.9,22.7C60.3,45.8,44.2,46.7,36.7,48.6z"/>
<path class="st1" d="M75.6,26.8c-1.1,0.1-2.1,0.3-3.1,0.4c-0.8-5-5.5-8.8-4.2-7.1c2.1,7.4-18.3,8.8-18.3,8.8C5.8,34.9,0,90.1,0,90.1
	c14-54,44.7-44.1,84.3-51.1c23.8-4.2,40.8-18.3,40.6-39C124.1,1.8,114.8,21.9,75.6,26.8z"/>
</svg>
